<?xml version="1.0" encoding="utf-8"?>
<?xml-stylesheet type="text/xsl" href="rss1.xsl"?>
<rss version="2.0" xmlns:atom="http://www.w3.org/2005/Atom" xmlns:content="http://purl.org/rss/1.0/modules/content/" xmlns:dc="http://purl.org/dc/elements/1.1/" xmlns:media="http://search.yahoo.com/mrss/">
<channel>
 <title>Getty</title>
 <link>http://www.gettyimg.com/</link>
 <atom:link href="http://www.gettyimg.com/" rel="self" type="application/rss+xml" />

 
                <item>
                <title><![CDATA[【Apple Music】WEB-RiP - Future, Metro Boomin, Travis Scott &amp; Playboi Carti - Type Shit [Apple HD Music Video]]]></title>
                <link><![CDATA[https://sharemania.us/threads/future-metro-boomin-travis-scott-playboi-carti-type-shit-apple-hd-music-video.242259/]]></link>
                <description><![CDATA[<article>
<blockquote class="messageText SelectQuoteContainer ugc baseHtml">
<span style="font-size: 22px"><b>Future, Metro Boomin, Travis Scott &amp; Playboi Carti - Type Shit [Apple HD Music Video]</b></span><br>
<br>
<img src="https://imgur.com/bS3fnLs.jpg" class="bbCodeImage LbImage" alt="[​IMG]" data-url="https://imgur.com/bS3fnLs.jpg" style=""><br>
<br>
<div class="bbCodeBlock bbCodeCode">
<div class="type">Code:</div>
<pre>General
Format                         : MPEG-4
Codec ID                       : M4V  (isom/iso4/M4V /mp42)
File size                      : 278 MiB
Duration                       : 3 min 48 s
Overall bit rate mode          : Variable
Overall bit rate               : 10.2 Mb/s
Movie name                     : Type Shit (Official Video)
Performer                      : Future, Metro Boomin, Travis Scott &amp; Playboi Carti
Genre                          : Hip-Hop/Rap
ContentType                    : Music Video
Recorded date                  : UTC 2024-03-24 07:00:00
Encoded date                   : UTC 2024-03-24 19:53:50
Tagged date                    : UTC 2024-03-24 19:53:50
Copyright                      : ℗ (C) 2024 Wilburn Holding Co. and Boominati Worldwide, under exclusive license to Epic Records, a division of Sony Music Entertainment. With Republic Records, a division of UMG Recordings, Inc.
Cover                          : Yes
Rating                         : Explicit
GenreID                        : 1618
AppleStoreCountry              : Canada
AlbumTitleID                   : 128050210
AppleStoreCatalogID            : 1737508219

Video
ID                             : 2
Format                         : AVC
Format/Info                    : Advanced Video Codec
Format profile                 : High@L4
Format settings                : CABAC / 4 Ref Frames
Format settings, CABAC         : Yes
Format settings, Reference fra : 4 frames
Codec ID                       : avc1
Codec ID/Info                  : Advanced Video Coding
Duration                       : 3 min 48 s
Bit rate                       : 9 914 kb/s
Maximum bit rate               : 15.4 Mb/s
Width                          : 1 920 pixels
Height                         : 1 080 pixels
Display aspect ratio           : 16:9
Frame rate mode                : Constant
Frame rate                     : 23.976 (24000/1001) FPS
Color space                    : YUV
Chroma subsampling             : 4:2:0
Bit depth                      : 8 bits
Scan type                      : Progressive
Bits/(Pixel*Frame)             : 0.199
Stream size                    : 270 MiB (97%)
Title                          : Core Media Video
Encoded date                   : UTC 2024-03-23 10:51:57
Tagged date                    : UTC 2024-03-24 19:53:58
Color range                    : Limited
Color primaries                : BT.709
Transfer characteristics       : BT.709
Matrix coefficients            : BT.709
Codec configuration box        : avcC

Audio
ID                             : 1
Format                         : AAC LC
Format/Info                    : Advanced Audio Codec Low Complexity
Codec ID                       : mp4a-40-2
Duration                       : 3 min 48 s
Duration_LastFrame             : -3 ms
Bit rate mode                  : Variable
Bit rate                       : 251 kb/s
Maximum bit rate               : 387 kb/s
Channel(s)                     : 2 channels
Channel layout                 : L R
Sampling rate                  : 48.0 kHz
Frame rate                     : 46.875 FPS (1024 SPF)
Compression mode               : Lossy
Stream size                    : 6.85 MiB (2%)
Title                          : Core Media Audio
Encoded date                   : UTC 2024-03-23 10:42:13
Tagged date                    : UTC 2024-03-24 19:53:58
</pre>
</div>
<div class="bbCodeBlock bbCodeVfcHH HiddenContent">
<div class="attribution type">Hidden Content:</div>
<blockquote>You must reply before you can see the hidden data contained here.</blockquote>
</div>
<div class="messageTextEndMarker">&nbsp;</div>
</blockquote>
</article>]]></description>
                <author><![CDATA[abby0511]]></author>
                </item>

                </channel></rss>